# xmcd
#
# Track frame offsets: 
#        150
#        21548
#        35745
#        58816
#        83606
#        100997
#        130850
#        160044
#        185489
#        205497
#        226061
#        247355
#        270923
#        288184
#        304152
#        325075
#
# Disc length: 4608 seconds
#
# Revision: 0
# Processed by: cddbd v1.5.2PL0 Copyright (c) Steve Scherf et al.
# Submitted via: ExactAudioCopy v1.0b6
#
DISCID=e111fe10
DTITLE=Kingsway - Worship Collection (2012)
DYEAR=2012
DGENRE=Praise and Worship
TTITLE0=Making Melody
TTITLE1=Praise Adonai
TTITLE2=May The Words Of My Mouth
TTITLE3=In Christ Alone
TTITLE4=Unashamed
TTITLE5=Waves Of Grace
TTITLE6=Crown Him With Many Crowns
TTITLE7=I Am Not Ashamed
TTITLE8=You Shaped The Heavens
TTITLE9=I Want To Be Out Of My Depth In Your Love
TTITLE10=I Have No One In Heaven
TTITLE11=Be Lifted Up
TTITLE12=Send The Rain
TTITLE13=The Father's Embrace
TTITLE14=All My Love
TTITLE15=There Is One Name
EXTD=
EXTT0=
EXTT1=
EXTT2=
EXTT3=
EXTT4=
EXTT5=
EXTT6=
EXTT7=
EXTT8=
EXTT9=
EXTT10=
EXTT11=
EXTT12=
EXTT13=
EXTT14=
EXTT15=
PLAYORDER=
